<svg width="51" height="52" viewBox="0 0 51 52" fill="none" xmlns="http://www.w3.org/2000/svg">
<g id="Group 36986">
<path id="Ellipse 8" d="M50.4205 26C50.4205 40.05 39.2526 51.4205 25.5 51.4205C11.7474 51.4205 0.579545 40.05 0.579545 26C0.579545 11.95 11.7474 0.579545 25.5 0.579545C39.2526 0.579545 50.4205 11.95 50.4205 26Z" fill="white" stroke="#F5F5F5" stroke-width="1.15909"/>
<g id="Group 36985">
<path id="Vector" d="M24.5233 29.1584L22.5905 31.129C22.1831 31.5445 21.5353 31.5445 21.1174 31.1397C21.0025 31.0225 20.8876 30.916 20.7727 30.7988C19.6966 29.691 18.725 28.5299 17.8578 27.3155C17.0011 26.1012 16.3116 24.8868 15.8101 23.6831C15.3191 22.4687 15.0684 21.3076 15.0684 20.1998C15.0684 19.4754 15.1937 18.783 15.4445 18.1439C15.6952 17.4941 16.0922 16.8976 16.6459 16.365C17.3146 15.6939 18.0459 15.3636 18.819 15.3636C19.1115 15.3636 19.404 15.4276 19.6652 15.5554C19.9369 15.6832 20.1772 15.875 20.3652 16.1519L22.789 19.6352C22.9771 19.9015 23.1129 20.1465 23.2069 20.3809C23.3009 20.6046 23.3532 20.8283 23.3532 21.0307C23.3532 21.2863 23.28 21.542 23.1338 21.787C22.998 22.032 22.7995 22.2876 22.5487 22.5433L21.7547 23.3848C21.6398 23.502 21.5876 23.6405 21.5876 23.8109C21.5876 23.8961 21.598 23.9707 21.6189 24.0559C21.6502 24.1411 21.6816 24.205 21.7025 24.269C21.8905 24.6205 22.2144 25.0785 22.6741 25.6325C23.1442 26.1864 23.6457 26.7509 24.189 27.3155C24.2934 27.422 24.4084 27.5286 24.5128 27.6351C24.9307 28.0505 24.9412 28.7323 24.5233 29.1584Z" fill="#0C0C0C"/>
<path id="Vector_2" d="M35.9318 32.7589C35.9318 33.0571 35.8795 33.366 35.7751 33.6643C35.7437 33.7495 35.7124 33.8347 35.6706 33.92C35.493 34.3034 35.2631 34.6656 34.9602 35.0065C34.4482 35.5817 33.8841 35.9972 33.2468 36.2635C33.2363 36.2635 33.2259 36.2741 33.2154 36.2741C32.5991 36.5298 31.9304 36.6682 31.2095 36.6682C30.1439 36.6682 29.0051 36.4126 27.8037 35.8906C26.6022 35.3687 25.4008 34.6656 24.2098 33.7815C23.8023 33.4726 23.3949 33.1636 23.0083 32.8334L26.4246 29.3501C26.7171 29.5738 26.9783 29.7443 27.1977 29.8614C27.25 29.8827 27.3126 29.9147 27.3858 29.9467C27.4694 29.9786 27.5529 29.9893 27.647 29.9893C27.8246 29.9893 27.9604 29.9253 28.0753 29.8082L28.8693 29.0093C29.1305 28.7429 29.3812 28.5406 29.6215 28.4127C29.8618 28.2636 30.1021 28.189 30.3633 28.189C30.5618 28.189 30.7707 28.2316 31.0006 28.3275C31.2304 28.4234 31.4707 28.5619 31.7319 28.7429L35.19 31.2462C35.4616 31.438 35.6497 31.6617 35.7646 31.928C35.8691 32.1943 35.9318 32.4606 35.9318 32.7589Z" fill="#0C0C0C"/>
</g>
</g>
</svg>
