<svg width="29" height="29" viewBox="0 0 29 29" fill="none" xmlns="http://www.w3.org/2000/svg">
<g id="Group">
<path id="Vector" d="M15.2149 10.9114C14.5241 10.4094 13.763 9.99041 12.9411 9.76015C12.1 9.52669 11.2141 9.49791 10.3443 9.57147C7.83381 9.78893 5.40969 10.8923 3.5996 12.6416C1.78951 14.3909 0.599845 16.7766 0.296032 19.2743C0.177704 20.2433 0.193694 21.2443 0.516696 22.1653C0.839698 23.0832 1.50809 23.9147 2.41313 24.2728C3.80108 24.8261 5.34254 24.2025 6.74328 23.6844C6.74647 23.6844 6.75287 23.6844 6.75607 23.678C7.50121 23.403 8.3391 23.7196 8.72926 24.4104C9.3177 25.4529 10.2036 26.8952 10.7984 27.3014C11.9785 28.1105 13.5487 28.4143 14.8759 27.877C15.6786 27.5508 16.3406 26.9464 16.9066 26.2876C18.7871 24.0842 19.7273 21.1004 19.4203 18.2222C19.1133 15.3439 17.5526 12.6128 15.2117 10.9114H15.2149Z" fill="white"/>
<path id="Vector_2" d="M23.014 8.57978C23.9446 6.40832 23.5288 4.1473 22.0897 3.53008C20.6506 2.91286 18.7286 4.17289 17.798 6.34435C16.8673 8.51582 17.2831 10.7768 18.7222 11.3941C20.1613 12.0113 22.0833 10.7513 23.014 8.57978Z" fill="white"/>
<path id="Vector_3" d="M27.3468 12.9867C26.122 12.0113 23.9345 12.7181 22.4634 14.5634C20.9923 16.4118 20.794 18.7016 22.0189 19.677C23.2437 20.6524 25.4312 19.9457 26.9023 18.1004C28.3734 16.2519 28.5717 13.9653 27.3468 12.9867Z" fill="white"/>
<path id="Vector_4" d="M9.93794 3.01542C9.03609 5.19968 9.47742 7.4543 10.9261 8.05233C12.3748 8.65037 14.2809 7.36795 15.1827 5.18369C16.0846 2.99943 15.6432 0.744816 14.1945 0.146783C12.7458 -0.45125 10.8398 0.831164 9.93794 3.01542Z" fill="white"/>
<path id="Vector_5" d="M5.68119 6.77308C5.97221 4.42892 4.94884 2.37258 3.39459 2.1775C1.84035 1.98242 0.343665 3.72535 0.049446 6.06951C-0.241575 8.41367 0.781797 10.47 2.33604 10.6651C3.89029 10.8602 5.38697 9.11724 5.68119 6.77308Z" fill="white"/>
</g>
</svg>
