<svg width="52" height="52" viewBox="0 0 52 52" fill="none" xmlns="http://www.w3.org/2000/svg">
<g id="Group 36984">
<path id="Ellipse 7" d="M50.9659 26C50.9659 40.05 39.798 51.4205 26.0454 51.4205C12.2928 51.4205 1.12496 40.05 1.12496 26C1.12496 11.95 12.2928 0.579545 26.0454 0.579545C39.798 0.579545 50.9659 11.95 50.9659 26Z" fill="white" stroke="#F5F5F5" stroke-width="1.15909"/>
<path id="Vector" d="M31.2615 15.3636H20.8297C17.9505 15.3636 15.6138 17.7367 15.6138 20.6632V27.0269V28.0911C15.6138 31.0176 17.9505 33.3907 20.8297 33.3907H22.3945C22.6761 33.3907 23.0517 33.5822 23.229 33.8163L24.7938 35.934C25.4823 36.8705 26.6089 36.8705 27.2974 35.934L28.8622 33.8163C29.0604 33.5503 29.3733 33.3907 29.6967 33.3907H31.2615C34.1407 33.3907 36.4774 31.0176 36.4774 28.0911V20.6632C36.4774 17.7367 34.1407 15.3636 31.2615 15.3636ZM21.8729 26.0053C21.2887 26.0053 20.8297 25.5265 20.8297 24.9412C20.8297 24.3559 21.2991 23.877 21.8729 23.877C22.4466 23.877 22.916 24.3559 22.916 24.9412C22.916 25.5265 22.457 26.0053 21.8729 26.0053ZM26.0456 26.0053C25.4614 26.0053 25.0024 25.5265 25.0024 24.9412C25.0024 24.3559 25.4718 23.877 26.0456 23.877C26.6193 23.877 27.0888 24.3559 27.0888 24.9412C27.0888 25.5265 26.6298 26.0053 26.0456 26.0053ZM30.2183 26.0053C29.6341 26.0053 29.1751 25.5265 29.1751 24.9412C29.1751 24.3559 29.6446 23.877 30.2183 23.877C30.7921 23.877 31.2615 24.3559 31.2615 24.9412C31.2615 25.5265 30.8025 26.0053 30.2183 26.0053Z" fill="#0C0C0C"/>
</g>
</svg>
