<svg width="44" height="43" viewBox="0 0 44 43" fill="none" xmlns="http://www.w3.org/2000/svg">
<g id="Group 1171274719">
<rect id="Rectangle 31" x="0.54541" width="42.5584" height="42.5584" rx="21.2792" fill="#0C0C0C"/>
<g id="Group">
<path id="Vector" d="M21.9939 17.6999C21.1878 17.3982 20.3358 17.1963 19.4755 17.194C18.5958 17.1938 17.7277 17.4044 16.9026 17.7101C14.523 18.5973 12.4658 20.3217 11.1788 22.5081C9.89191 24.6945 9.37894 27.3319 9.75646 29.8395C9.90248 30.8125 10.1876 31.7804 10.7493 32.5879C11.3102 33.3924 12.1832 34.02 13.1587 34.1241C14.6557 34.2877 15.9848 33.2669 17.2058 32.3865C17.2089 32.3857 17.2151 32.384 17.2165 32.3769C17.8661 31.9091 18.7651 31.991 19.3301 32.5568C20.1823 33.4109 21.4311 34.5732 22.1182 34.8074C23.4822 35.2755 25.089 35.1477 26.2333 34.2685C26.9251 33.7355 27.4053 32.9702 27.7776 32.1779C29.0106 29.5315 29.1203 26.3804 28.047 23.6677C26.9738 20.955 24.7226 18.7227 21.9908 17.7007L21.9939 17.6999Z" fill="white"/>
<path id="Vector_2" d="M28.9406 13.3351C29.2597 10.9755 28.247 8.89155 26.6831 8.67963C25.1192 8.46771 23.5918 10.2091 23.2727 12.5686C22.9536 14.9282 23.9663 17.0122 25.5302 17.2241C27.0941 17.4361 28.6215 15.6947 28.9406 13.3351Z" fill="white"/>
<path id="Vector_3" d="M34.3358 16.4484C32.8835 15.8309 30.9494 17.1064 30.0175 19.2947C29.0865 21.4861 29.5106 23.7634 30.9628 24.3809C32.4151 24.9984 34.3493 23.7229 35.2811 21.5346C36.2121 19.3432 35.7889 17.069 34.3358 16.4484Z" fill="white"/>
<path id="Vector_4" d="M14.7424 11.4522C14.4547 13.8164 15.4905 15.8873 17.0585 16.078C18.6266 16.2687 20.1324 14.5099 20.4201 12.1457C20.7078 9.78141 19.672 7.71053 18.104 7.51983C16.5359 7.32913 15.0301 9.08791 14.7424 11.4522Z" fill="white"/>
<path id="Vector_5" d="M11.6201 16.248C11.2715 13.8929 9.7238 12.1713 8.16175 12.4004C6.5997 12.6295 5.61545 14.7253 5.96095 17.0812C6.30956 19.4363 7.85724 21.1579 9.41929 20.9288C10.9813 20.6997 11.9656 18.6039 11.6201 16.248Z" fill="white"/>
</g>
</g>
</svg>
