<svg width="24" height="35" viewBox="0 0 24 35" fill="none" xmlns="http://www.w3.org/2000/svg">
<g id="Group 1171274735">
<path id="Vector 91" d="M1.56525 27.4815L2.3973 26.9268L1.56525 27.4815ZM21.9357 25.8519L22.9266 25.987L21.9357 25.8519ZM7.23205 33.0007C6.68014 33.0211 6.24931 33.4851 6.26975 34.037C6.29019 34.5889 6.75416 35.0198 7.30607 34.9993L7.23205 33.0007ZM4.97425 21.219C3.87608 21.5119 2.28223 22.1623 1.20097 23.2233C0.648343 23.7656 0.175189 24.4697 0.0388254 25.3377C-0.100525 26.2247 0.134439 27.1381 0.7332 28.0362L2.3973 26.9268C2.01828 26.3583 1.96806 25.9443 2.01459 25.6481C2.06411 25.3329 2.2479 24.9981 2.60175 24.6509C3.33346 23.9329 4.55071 23.4018 5.48958 23.1515L4.97425 21.219ZM0.7332 28.0362C1.32664 28.9264 2.34254 29.1212 3.22094 29.0962C4.12066 29.0706 5.17309 28.8138 6.25718 28.4654C8.42167 27.7699 11.0881 26.5775 13.4985 25.6084C14.7249 25.1153 15.8986 24.6733 16.9608 24.3529C18.0344 24.029 18.9329 23.8487 19.6237 23.8408C20.3257 23.8327 20.6237 24.0012 20.7557 24.1536C20.8926 24.3116 21.0812 24.7173 20.9449 25.7167L22.9266 25.987C23.0958 24.7457 22.9534 23.6363 22.2675 22.8443C21.5767 22.0465 20.5602 21.8299 19.6007 21.8409C18.6301 21.8521 17.5202 22.0951 16.3832 22.4381C15.2349 22.7845 13.996 23.2528 12.7524 23.7528C10.223 24.7698 7.72045 25.8945 5.64534 26.5613C4.60963 26.8941 3.77461 27.0797 3.16406 27.097C2.53218 27.115 2.41497 26.9533 2.3973 26.9268L0.7332 28.0362ZM20.9449 25.7167C20.53 28.7592 18.2109 30.5528 15.2686 31.6243C12.3348 32.6925 9.04147 32.9337 7.23205 33.0007L7.30607 34.9993C9.16331 34.9305 12.7144 34.6828 15.9529 33.5035C19.1828 32.3274 22.3637 30.1149 22.9266 25.987L20.9449 25.7167Z" fill="white"/>
<path id="Ellipse 111" d="M13.3296 13.4159C16.167 15.0541 19.7736 13.7606 21.4599 10.8397C23.1463 7.91873 22.4633 4.14859 19.6259 2.51044C16.7886 0.872281 13.182 2.16581 11.4956 5.08673C9.8092 8.00765 10.4923 11.7778 13.3296 13.4159Z" stroke="white" stroke-width="2"/>
<path id="Vector 90" d="M4.82525 22.1852C2.27122 19.9955 8.35612 14.7161 10.9364 12.8148L13.788 14.8519C11.3437 18.5185 7.67646 24.6296 4.82525 22.1852Z" stroke="white" stroke-width="2"/>
</g>
</svg>
