<svg width="43" height="43" viewBox="0 0 43 43" fill="none" xmlns="http://www.w3.org/2000/svg">
<g id="mdi:tick-decagram">
<path id="Vector" d="M36.8189 22.8213C37.4925 22.0635 37.4925 20.9216 36.8189 20.1639L34.9175 18.0247C34.5491 17.6103 34.3693 17.0617 34.421 16.5097L34.686 13.6771C34.7798 12.6751 34.1144 11.7595 33.1324 11.5393L30.2697 10.8972C29.7366 10.7776 29.2756 10.4452 28.9939 9.97708L27.4955 7.4878C26.9818 6.63434 25.9184 6.28902 25.0013 6.67788L22.2807 7.83141C21.7817 8.04298 21.2183 8.04298 20.7193 7.83141L17.9987 6.67788C17.0816 6.28902 16.0182 6.63434 15.5045 7.4878L14.0077 9.97444C13.725 10.4441 13.262 10.7771 12.7268 10.8957L9.8731 11.5279C8.88862 11.7461 8.22048 12.6629 8.31442 13.6669L8.57922 16.497C8.63076 17.0477 8.45188 17.5952 8.08511 18.0093L6.17659 20.1642C5.50528 20.9221 5.50629 22.0622 6.17896 22.8189L8.08275 24.9607C8.45096 25.375 8.63077 25.9234 8.57927 26.4753L8.31351 29.3233C8.22002 30.3251 8.88536 31.2404 9.86715 31.4606L12.7303 32.1028C13.2634 32.2224 13.7244 32.5548 14.0061 33.0229L15.5022 35.5085C16.0169 36.3636 17.0832 36.7083 18.001 36.3165L20.7174 35.1568C21.2174 34.9434 21.7828 34.9427 22.2834 35.1549L25.0013 36.3073C25.9184 36.6962 26.9818 36.3508 27.4955 35.4974L28.9939 33.0081C29.2756 32.54 29.7366 32.2076 30.2697 32.088L33.1324 31.4459C34.1144 31.2257 34.7798 30.3101 34.686 29.3081L34.421 26.4755C34.3693 25.9235 34.5491 25.3749 34.9175 24.9605L36.8189 22.8213ZM19.9052 27.5107C19.1263 28.2798 17.8737 28.2798 17.0948 27.5107L13.5719 24.0321C12.9821 23.4498 12.9821 22.4977 13.5719 21.9153C14.1504 21.344 15.0804 21.3431 15.6601 21.9133L17.0948 23.3245C17.8742 24.0911 19.1246 24.0899 19.9025 23.3218L27.3335 15.9843C27.9158 15.4093 28.8526 15.411 29.4328 15.988C30.0206 16.5725 30.019 17.5242 29.4291 18.1066L19.9052 27.5107Z" fill="#9CFFF4"/>
</g>
</svg>
